# xmcd
#
# Track frame offsets:
#	150
#	19046
#	31423
#	48558
#	63823
#	91658
#	109793
#	127513
#	146898
#	165993
#	193106
#	205253
#	229233
#	242586
#
# Disc length: 3414 seconds
#
# Revision: 0
# Processed by: cddbd v1.5PL3 Copyright (c) Steve Scherf et al.
# Submitted via: dBpowerAMP V4.0
#
DISCID=b10d540e
DTITLE=Various Artist - Night Club Music - Melancholic SAX
DYEAR=1900
DGENRE=Blues
TTITLE0=I Don't Know How to Love Him
TTITLE1=Tonight
TTITLE2=Laura
TTITLE3=Tenderly
TTITLE4=Snowwhite/ Heigh Ho/ OneSong/ I'm Wishing/ Someday My Prince Will Come/ Heigh Ho
TTITLE5=All of Me
TTITLE6=Once Upon A Time
TTITLE7=A Man and A Woman
TTITLE8=All the Things You Are
TTITLE9=EBB Tide
TTITLE10=Europe, Europe
TTITLE11=Love Story
TTITLE12=Everybody's Talking About Me
TTITLE13=The Music of The Night
EXTD=
EXTT0=
EXTT1=
EXTT2=
EXTT3=
EXTT4=
EXTT5=
EXTT6=
EXTT7=
EXTT8=
EXTT9=
EXTT10=
EXTT11=
EXTT12=
EXTT13=
PLAYORDER=
